<?xml version="1.0" encoding="utf-8"?>
<svg version="1.1" xmlns:xlink="http://www.w3.org/1999/xlink" width="40px" height="40px" xmlns="http://www.w3.org/2000/svg">
  <g transform="matrix(1 0 0 1 -23 -10 )">
    <path d="M 43 10  C 54.2 10  63 18.8  63 30  C 63 41.2  54.2 50  43 50  C 31.8 50  23 41.2  23 30  C 23 18.8  31.8 10  43 10  Z " fill-rule="nonzero" fill="#ffffff" stroke="none" />
    <path d="M 43 10.5  C 53.92 10.5  62.5 19.08  62.5 30  C 62.5 40.92  53.92 49.5  43 49.5  C 32.08 49.5  23.5 40.92  23.5 30  C 23.5 19.08  32.08 10.5  43 10.5  Z " stroke-width="1" stroke="#797979" fill="none" />
  </g>
</svg>