<?xml version="1.0" encoding="utf-8"?>
<svg version="1.1" xmlns:xlink="http://www.w3.org/1999/xlink" width="27px" height="22px" xmlns="http://www.w3.org/2000/svg">
  <g transform="matrix(1 0 0 1 -468 -12 )">
    <path d="M 10.63828125 10.0018028846154  C 11.43046875 9.25701121794872  12.384375 8.88461538461538  13.5 8.88461538461539  C 14.615625 8.88461538461538  15.56953125 9.25701121794872  16.36171875 10.0018028846154  C 17.15390625 10.7465945512821  17.55 11.6434294871795  17.55 12.6923076923077  C 17.55 13.7411858974359  17.15390625 14.6380208333333  16.36171875 15.3828125  C 15.56953125 16.1276041666667  14.615625 16.5  13.5 16.5  C 12.384375 16.5  11.43046875 16.1276041666667  10.63828125 15.3828125  C 9.84609375 14.6380208333333  9.45 13.7411858974359  9.45 12.6923076923077  C 9.45 11.6434294871795  9.84609375 10.7465945512821  10.63828125 10.0018028846154  Z M 20.25 3.38461538461539  L 23.4 3.38461538461539  C 24.39375 3.38461538461539  25.2421875 3.71514423076923  25.9453125 4.37620192307692  C 26.6484375 5.03725961538462  27 5.8349358974359  27 6.76923076923077  L 27 18.6153846153846  C 27 19.5496794871795  26.6484375 20.3473557692308  25.9453125 21.0084134615385  C 25.2421875 21.6694711538462  24.39375 22  23.4 22  L 3.6 22  C 2.60625 22  1.7578125 21.6694711538462  1.0546875 21.0084134615385  C 0.3515625 20.3473557692308  0 19.5496794871795  0 18.6153846153846  L 0 6.76923076923077  C 0 5.8349358974359  0.3515625 5.03725961538462  1.0546875 4.37620192307692  C 1.7578125 3.71514423076923  2.60625 3.38461538461539  3.6 3.38461538461539  L 6.75 3.38461538461539  L 7.4671875 1.58653846153846  C 7.6453125 1.15464743589744  7.97109375 0.782251602564101  8.44453125 0.469350961538461  C 8.91796875 0.156450320512823  9.403125 0  9.9 0  L 17.1 0  C 17.596875 0  18.08203125 0.156450320512823  18.55546875 0.469350961538461  C 19.02890625 0.782251602564101  19.3546875 1.15464743589744  19.5328125 1.58653846153846  L 20.25 3.38461538461539  Z M 9.04921875 16.8768028846154  C 10.28203125 18.0358573717949  11.765625 18.6153846153846  13.5 18.6153846153846  C 15.234375 18.6153846153846  16.71796875 18.0358573717949  17.95078125 16.8768028846154  C 19.18359375 15.7177483974359  19.8 14.3229166666667  19.8 12.6923076923077  C 19.8 11.0616987179487  19.18359375 9.66686698717949  17.95078125 8.5078125  C 16.71796875 7.34875801282051  15.234375 6.76923076923077  13.5 6.76923076923077  C 11.765625 6.76923076923077  10.28203125 7.34875801282051  9.04921875 8.5078125  C 7.81640625 9.66686698717949  7.2 11.0616987179487  7.2 12.6923076923077  C 7.2 14.3229166666667  7.81640625 15.7177483974359  9.04921875 16.8768028846154  Z " fill-rule="nonzero" fill="#aaaaaa" stroke="none" transform="matrix(1 0 0 1 468 12 )" />
  </g>
</svg>